<?xml version="1.0" encoding="UTF-8"?>
<svg xmlns="http://www.w3.org/2000/svg" id="Layer_1" data-name="Layer 1" viewBox="0 0 35.2 35.2"><defs><style>.cls-1{fill:#fff;}.cls-2{fill:#ffaa30;}</style></defs><g id="WooCommerce"><circle cx="17.6" cy="17.6" r="17.6"/></g><g id="T6dmPa"><path class="cls-1" d="M18.54,12.86a2.07,2.07,0,0,1-.1.43c-.48,1.8-1,3.6-1.43,5.4-.38,1.43-.76,2.86-1.13,4.29,0,.09-.06.14-.16.14a2.37,2.37,0,0,1-1.67-.44,1.8,1.8,0,0,1-.48-.68,9.09,9.09,0,0,1-.4-1.32c-.38-1.55-.77-3.1-1.15-4.65a1.48,1.48,0,0,0-.16-.46.21.21,0,0,0-.37,0,.46.46,0,0,0-.07.14c0,.08-.05.15-.07.22-.26,1-.51,2.05-.76,3.07s-.42,1.79-.69,2.67a3.2,3.2,0,0,1-.26.6,1.65,1.65,0,0,1-1.22.82,3.38,3.38,0,0,1-.84,0c-.07,0-.09,0-.11-.1l-.6-2.26c-.64-2.43-1.28-4.85-1.93-7.28-.05-.19-.09-.38-.15-.56,0,0,0-.05,0-.05h.49l.19,0a1.8,1.8,0,0,1,1.57,1.39c.41,1.6.82,3.19,1.24,4.79,0,.22.11.44.17.68l0-.11c.36-1.4.73-2.79,1.09-4.18a5.09,5.09,0,0,1,.47-1.27,1.47,1.47,0,0,1,.53-.6,2.1,2.1,0,0,1,1.83-.12,1.36,1.36,0,0,1,.71.56,4.38,4.38,0,0,1,.48,1.14c.39,1.5.78,3,1.18,4.48,0,0,0,.05,0,.07l.17-.65q.62-2.4,1.24-4.8A1.73,1.73,0,0,1,17.5,13c.17-.05.34-.07.51-.11Z" transform="translate(-0.4 -0.4)"/><path class="cls-1" d="M30.94,12.86l.19,0c.1,0,.1,0,.05.1l-.53.77-2.07,3.09-.74,1.09a.11.11,0,0,0,0,.15c.87,1.29,1.74,2.59,2.62,3.88l.7,1.05c.06.08.05.09,0,.1A4.1,4.1,0,0,1,29.68,23a1.92,1.92,0,0,1-.86-.53A12.7,12.7,0,0,1,27.67,21l-.89-1.28c-.15-.22-.33-.22-.48,0l-.67,1c-.35.49-.67,1-1.05,1.47a3.89,3.89,0,0,1-.43.48,1.74,1.74,0,0,1-.88.43,4.06,4.06,0,0,1-1.3.08c-.1,0-.11,0,0-.11,1.1-1.62,2.19-3.25,3.29-4.88.1-.14.09-.1,0-.23l-2.8-4.16L21.9,13c0-.07,0-.08.05-.09l.19,0h.69l.3.05a1.74,1.74,0,0,1,1.05.53c.19.21.38.43.55.65.39.52.75,1.06,1.12,1.59.16.23.32.47.49.69a.23.23,0,0,0,.4,0l0,0,.9-1.29a14.42,14.42,0,0,1,1.16-1.54,1.87,1.87,0,0,1,.91-.56c.16,0,.34-.06.51-.09Z" transform="translate(-0.4 -0.4)"/><path class="cls-2" d="M21.05,12.86a5.29,5.29,0,0,1-.08.8,1.09,1.09,0,0,1-.43.64,2.52,2.52,0,0,1-.68.38,2,2,0,0,0-.6.35s0,0-.06,0,0,0,0,0a4.72,4.72,0,0,1,.14-1.24,1.16,1.16,0,0,1,.95-.84l.4-.07Z" transform="translate(-0.4 -0.4)"/><path class="cls-1" d="M21.05,14.55v6.51a6.63,6.63,0,0,1-.06,1,1.12,1.12,0,0,1-.9,1,2.39,2.39,0,0,1-.8.06c-.08,0-.11,0-.11-.11V16.15a.77.77,0,0,1,.46-.73l.54-.26a2.08,2.08,0,0,0,.82-.59Z" transform="translate(-0.4 -0.4)"/></g></svg>