<svg width="437" height="96" viewBox="0 0 437 96" fill="none" xmlns="http://www.w3.org/2000/svg">
<path d="M139.686 77.5136C120.31 77.5136 111.074 69.1648 111.074 54.0576H121.816C122.921 64.2948 127.438 69.1648 139.887 69.1648C152.135 69.1648 157.154 64.096 157.154 56.2442C157.154 51.0759 154.243 47.3985 142.899 45.8083L132.96 44.3174C118.202 42.2303 112.881 36.9626 112.881 26.2285C112.881 13.6061 121.616 4.76038 139.686 4.76038C157.757 4.76038 166.491 13.4073 166.491 27.2224H156.05C154.946 17.8798 150.227 13.1091 139.385 13.1091C128.743 13.1091 124.025 18.0786 124.025 25.6322C124.025 30.9992 126.535 33.8815 136.574 35.273L146.513 36.7638C160.668 38.7516 168.298 44.1187 168.298 55.5485C168.298 68.9661 159.062 77.5136 139.686 77.5136ZM220.49 76.5197H209.849V44.5162C209.849 36.7638 207.038 32.7882 199.709 32.7882C191.979 32.7882 186.959 38.5528 186.959 47.8955V76.5197H176.318V5.75427H186.959V33.3846C189.77 27.8188 194.689 24.2407 202.922 24.2407C214.768 24.2407 220.49 30.2041 220.49 42.6278V76.5197ZM241.175 76.5197H230.534V25.2346H241.175V76.5197ZM235.854 16.2896C231.738 16.2896 229.53 13.9042 229.53 10.7238C229.53 7.54329 231.738 5.05854 235.854 5.05854C239.87 5.05854 242.179 7.54329 242.179 10.7238C242.179 13.9042 239.87 16.2896 235.854 16.2896ZM278.727 77.5136C270.394 77.5136 264.772 74.1343 261.861 67.7734V96H251.219V25.2346H261.359V34.776C264.17 28.1169 269.792 24.2407 278.727 24.2407C292.681 24.2407 301.416 34.0803 301.416 50.8772C301.416 67.674 292.681 77.5136 278.727 77.5136ZM276.318 69.463C284.851 69.463 290.774 63.7978 290.774 50.8772C290.774 38.0559 284.851 32.2913 276.318 32.2913C267.684 32.2913 261.861 38.0559 261.861 50.8772C261.861 63.7978 267.684 69.463 276.318 69.463ZM320.097 76.5197H309.455V25.2346H320.097V76.5197ZM314.776 16.2896C310.66 16.2896 308.451 13.9042 308.451 10.7238C308.451 7.54329 310.66 5.05854 314.776 5.05854C318.792 5.05854 321.101 7.54329 321.101 10.7238C321.101 13.9042 318.792 16.2896 314.776 16.2896ZM350.722 77.5136C336.767 77.5136 328.133 67.674 328.133 50.8772C328.133 34.0803 336.767 24.2407 350.722 24.2407C359.054 24.2407 364.776 27.62 367.688 33.9809V5.75427H378.329V76.5197H368.19V67.0777C365.278 73.6374 359.757 77.5136 350.722 77.5136ZM353.231 69.463C361.765 69.463 367.688 63.7978 367.688 50.8772C367.688 38.0559 361.765 32.2913 353.231 32.2913C344.598 32.2913 338.775 38.0559 338.775 50.8772C338.775 63.7978 344.598 69.463 353.231 69.463ZM411.969 77.5136C395.505 77.5136 386.369 67.1771 386.369 50.8772C386.369 35.0742 395.003 24.2407 411.367 24.2407C427.731 24.2407 436.364 35.273 436.364 49.9827C436.364 50.9765 436.264 51.8711 436.164 52.8649H397.011C397.312 64.9905 403.135 70.2581 411.969 70.2581C419.298 70.2581 423.916 66.4813 425.522 60.6173H435.26C432.951 71.0533 425.422 77.5136 411.969 77.5136ZM411.367 31.4962C403.335 31.4962 398.114 36.2669 397.011 45.9077H425.723C424.619 36.2669 419.398 31.4962 411.367 31.4962Z" fill="white"/>
<path d="M33.3421 26.9753V53.2234H60.2975V85.686H0V26.9753H33.3421ZM6.38452 79.4695H53.913V59.4399H26.9575V33.1918H6.38452V79.4695Z" fill="white"/>
<path d="M53.1373 59.5041L53.1373 32.9013L26.1818 32.9013L26.1818 1.38021e-05L86.4793 1.90735e-05L86.4793 59.5042L53.1373 59.5041ZM80.0948 6.30053L32.5663 6.30052L32.5663 26.6008L59.5218 26.6008L59.5218 53.2036L80.0948 53.2036L80.0948 6.30053Z" fill="white"/>
</svg>
