<?xml version="1.0" encoding="UTF-8"?>
<svg id="Layer_2" data-name="Layer 2" xmlns="http://www.w3.org/2000/svg" viewBox="0 0 1774.58 430.68">
  <defs>
    <style>
      .cls-1 {
        fill: #fff;
      }
    </style>
  </defs>
  <g id="Layer_1-2" data-name="Layer 1">
    <g>
      <path class="cls-1" d="M439.9,234.39h37.95c6.09,52.47,27.64,78.24,92.29,78.24s88.07-26.7,88.07-69.8c0-25.77-14.05-44.97-68.87-52.94l-50.6-7.5c-67.46-10.31-90.42-35.14-90.42-81.98,0-59.03,38.88-99.79,120.87-99.79s120.87,39.35,120.87,104.47h-37.01c-5.62-49.19-28.58-73.55-84.79-73.55s-79.64,25.77-79.64,66.52c0,27.64,12.65,43.1,61.84,50.59l50.6,7.5c64.18,9.37,97.44,34.2,97.44,84.79,0,63.71-41.23,102.6-129.3,102.6s-129.3-37.95-129.3-109.15Z"/>
      <path class="cls-1" d="M874.17,338.86v-153.66c0-40.29-14.52-61.37-53.41-61.37s-66.52,31.39-66.52,80.11v134.92h-38.88V5.3h38.88v133.98c13.12-29.05,37.95-46.85,77.3-46.85,55.28,0,81.51,28.11,81.51,86.67v159.75h-38.88Z"/>
      <path class="cls-1" d="M934.61,27.32c0-12.18,8.43-21.55,23.89-21.55s24.36,9.37,24.36,21.55-8.9,21.55-24.36,21.55-23.89-9.37-23.89-21.55ZM939.29,338.86V97.12h38.88v241.73h-38.88Z"/>
      <path class="cls-1" d="M1043.29,292.95v137.73h-38.88V97.12h37.01v48.25c13.59-34.2,41.69-52.94,85.26-52.94,65.12,0,104.94,46.38,104.94,125.55s-39.82,125.55-104.94,125.55c-41.23,0-69.8-16.87-83.39-50.59ZM1192.74,217.99c0-66.06-30.45-95.57-74.96-95.57s-74.49,29.51-74.49,95.57,30.45,95.57,74.49,95.57,74.96-29.51,74.96-95.57Z"/>
      <path class="cls-1" d="M1243.8,27.32c0-12.18,8.43-21.55,23.89-21.55s24.36,9.37,24.36,21.55-8.9,21.55-24.36,21.55-23.89-9.37-23.89-21.55ZM1248.49,338.86V97.12h38.88v241.73h-38.88Z"/>
      <path class="cls-1" d="M1304.23,217.99c0-79.17,39.82-125.55,104.94-125.55,41.23,0,69.8,16.87,83.39,50.6V5.3h38.88v333.55h-37.01v-48.25c-13.59,34.2-42.16,52.94-85.26,52.94-65.12,0-104.94-46.38-104.94-125.55ZM1492.56,217.99c0-66.06-30.45-95.57-74.96-95.57s-74.49,29.51-74.49,95.57,30.45,95.57,74.49,95.57,74.96-29.51,74.96-95.57Z"/>
      <path class="cls-1" d="M1548.31,217.99c0-74.49,38.42-125.55,112.9-125.55s113.37,52.47,113.37,119.93c0,3.75,0,7.96-.94,11.71h-186.45c.94,65.59,31.86,92.29,76.83,92.29,38.88,0,62.31-20.61,70.74-51.06h34.67c-11.24,48.25-44.5,78.24-105.41,78.24-74.49,0-115.71-47.78-115.71-125.55ZM1587.19,197.85h148.51c-5.15-52.47-32.79-78.24-74.49-78.24s-68.87,25.77-74.02,78.24Z"/>
    </g>
    <g>
      <ellipse class="cls-1" cx="242.91" cy="288.75" rx="19.02" ry="57.52" transform="translate(-111.83 160.14) rotate(-30)"/>
      <ellipse class="cls-1" cx="289.34" cy="241.73" rx="19.02" ry="57.52" transform="translate(-64.67 371.44) rotate(-60)"/>
      <path class="cls-1" d="M166.2,305.46c0,31.76,7.36,57.52,16.44,57.52s16.44-25.75,16.44-57.52c0-31.76-7.36-57.52-16.44-57.52-9.08,0-16.44,25.75-16.44,57.52Z"/>
      <ellipse class="cls-1" cx="117.16" cy="286.54" rx="55.73" ry="12.29" transform="translate(-189.57 244.74) rotate(-60)"/>
      <ellipse class="cls-1" cx="72.78" cy="241.73" rx="55.73" ry="12.29" transform="translate(-111.11 68.78) rotate(-30)"/>
      <ellipse class="cls-1" cx="55.73" cy="180.69" rx="55.73" ry="9.87"/>
      <ellipse class="cls-1" cx="72.72" cy="118.39" rx="15.51" ry="55.73" transform="translate(-66.21 116.99) rotate(-57.86)"/>
      <ellipse class="cls-1" cx="117.58" cy="73.3" rx="15.51" ry="55.73" transform="translate(-20.9 68.61) rotate(-30)"/>
      <ellipse class="cls-1" cx="179.75" cy="55.7" rx="55.73" ry="28.76" transform="translate(117.06 233.13) rotate(-87.76)"/>
      <ellipse class="cls-1" cx="242.6" cy="72.99" rx="55.73" ry="25.95" transform="translate(58.09 246.6) rotate(-60)"/>
      <ellipse class="cls-1" cx="287.89" cy="118.01" rx="55.73" ry="23.33" transform="translate(-20.44 159.75) rotate(-30)"/>
      <ellipse class="cls-1" cx="303.86" cy="181.61" rx="55.73" ry="23.33"/>
    </g>
  </g>
</svg>