<svg width="289" height="191" viewBox="0 0 289 191" fill="none" xmlns="http://www.w3.org/2000/svg">
<rect opacity="0.4" x="156.76" y="70.054" width="11.4843" height="11.4843" fill="#7747E3"/>
<rect x="156.76" y="70.054" width="11.4843" height="11.4843" fill="#7747E3"/>
<rect opacity="0.4" y="21.8201" width="11.4843" height="11.4843" fill="#7747E3"/>
<rect opacity="0.5" x="130.921" y="12.6327" width="11.4843" height="11.4843" fill="#7747E3"/>
<rect x="274.474" y="70.054" width="11.4843" height="11.4843" fill="#7747E3"/>
<rect opacity="0.75" x="234.279" y="81.5382" width="11.4843" height="11.4843" fill="#7747E3"/>
<rect opacity="0.5" x="214.756" y="117.139" width="9.18741" height="9.18741" fill="#7747E3"/>
<rect opacity="0.4" x="220.498" width="9.18741" height="9.18741" fill="#7747E3"/>
<rect opacity="0.75" x="205.568" y="14.9296" width="9.18741" height="9.18741" fill="#7747E3"/>
<rect opacity="0.5" x="89.5771" y="2.29688" width="9.18741" height="9.18741" fill="#7747E3"/>
<rect x="223.943" y="44.7886" width="10.3358" height="10.3358" fill="#7747E3"/>
<rect x="269.88" y="1.14844" width="10.3358" height="10.3358" fill="#7747E3"/>
<rect opacity="0.4" x="163.076" y="34.4528" width="6.89055" height="6.89055" fill="#7747E3"/>
<rect x="181.451" y="8.03894" width="6.89055" height="6.89055" fill="#7747E3"/>
<rect opacity="0.5" x="259.544" y="55.1244" width="6.89055" height="6.89055" fill="#7747E3"/>
<rect opacity="0.4" x="259.544" y="55.1244" width="6.89055" height="6.89055" fill="#7747E3"/>
<rect x="269.88" y="132.069" width="6.89055" height="6.89055" fill="#7747E3"/>
<rect opacity="0.5" x="168.819" y="126.327" width="5.74213" height="5.74213" fill="#7747E3"/>
<rect opacity="0.4" x="234.279" y="16.078" width="5.74213" height="5.74213" fill="#7747E3"/>
<rect opacity="0.5" x="282.513" y="39.0465" width="5.74213" height="5.74213" fill="#7747E3"/>
<rect x="97.6162" y="37.8981" width="6.89055" height="6.89055" fill="#7747E3"/>
<rect opacity="0.75" x="97.6162" y="37.8981" width="6.89055" height="6.89055" fill="#7747E3"/>
<rect opacity="0.4" x="49.3823" y="78.093" width="6.89055" height="6.89055" fill="#7747E3"/>
<rect x="252.654" y="24.1169" width="6.89055" height="6.89055" fill="#7747E3"/>
<rect opacity="0.75" x="252.654" y="24.1169" width="6.89055" height="6.89055" fill="#7747E3"/>
<rect opacity="0.4" x="104.507" y="145.85" width="6.89055" height="6.89055" fill="#7747E3"/>
</svg>
